<?xml version="1.0" encoding="UTF-8"?>
<svg id="_레이어_2" data-name="레이어 2" xmlns="http://www.w3.org/2000/svg" viewBox="0 0 204.23 212.19">
  <defs>
    <style>
      .cls-1, .cls-2, .cls-3, .cls-4, .cls-5, .cls-6, .cls-7, .cls-8, .cls-9, .cls-10, .cls-11 {
        stroke-width: 0px;
      }

      .cls-2 {
        fill: #f4cc29;
      }

      .cls-3 {
        fill: #27326f;
      }

      .cls-4 {
        opacity: .2;
      }

      .cls-5 {
        fill: #b9d432;
      }

      .cls-6 {
        fill: #fff;
      }

      .cls-7 {
        fill: #221f1f;
      }

      .cls-8 {
        fill: #0075c2;
      }

      .cls-9 {
        fill: #dde11e;
      }

      .cls-10 {
        fill: #f28cb4;
      }

      .cls-11 {
        fill: #d80c18;
      }
    </style>
  </defs>
  <g id="_레이어_1-2" data-name="레이어 1">
    <g>
      <g>
        <path class="cls-2" d="m173.27,47.13c-.01,2.95-1.15,5.41-3.69,6.91-3.08,1.82-6.29,3.42-9.49,5.01-11.57,5.77-23.15,11.5-34.73,17.23-.32.16-.68.25-1.25.46,0-3.61.13-7.04-.05-10.46-.11-1.97.53-2.98,2.32-3.84,9.04-4.38,18.01-8.92,27-13.4.5-.25.99-.54,1.69-.92-2.86-1.41-5.54-2.75-8.23-4.05-14.83-7.17-29.72-14.22-44.47-21.55-4.91-2.44-9.22-2.05-13.97.35-16.62,8.39-33.35,16.55-50.03,24.8-.21.1-.41.22-.85.45,9.13,4.31,18.08,8.54,27.24,12.87-1.97,1.03-3.75,1.97-5.55,2.89-2.4,1.22-4.78,2.46-7.22,3.6-.5.23-1.29.25-1.78.01-7.58-3.62-15.13-7.29-22.68-10.98-2.59-1.27-4.84-2.96-6.26-5.55-.31-.57-.48-1.22-.71-1.83-.55-3.03,1.15-6.19,4.45-7.91,4.14-2.15,8.35-4.18,12.54-6.26,16.1-7.99,32.21-15.98,48.31-23.97,3-1.49,5.96-3,9.46-3.03,2.53-.02,4.87.5,7.11,1.58,21.6,10.38,43.21,20.77,64.81,31.16.04.02.08.05.13.07,2.89,1.27,5.18,3.09,5.89,6.37Z"/>
        <path class="cls-2" d="m25.47,127.37c1.44.09,2.93,1.57,2.79,2.86-.35,3.26,1.01,5.66,3.84,7.1,4.12,2.1,8.33,4.01,12.48,6.03,14.97,7.29,29.96,14.53,44.88,21.92,4.64,2.3,9.01,2.14,13.52-.22,7.32-3.83,14.69-7.57,22.03-11.34.4-.21.82-.38,1.37-.63,0,4.57.02,8.94-.04,13.32,0,.31-.49.73-.85.91-7.46,3.75-14.93,7.48-22.53,11.27,1.39,2.43,1.8,5.05.64,7.55-.66,1.42-1.85,2.77-3.13,3.71-2.93,2.13-6.92,1.83-9.61-.42-3.15-2.64-3.74-6.13-1.76-10.84-2.89-1.44-5.79-2.9-8.69-4.33-14.6-7.19-29.21-14.37-43.82-21.55-2.92-1.44-5.86-2.83-8.75-4.31-3.3-1.69-5.8-4.16-7.2-7.66-.15-.83-.33-1.66-.43-2.5-.51-4.06,1.11-7.24,4.09-9.85.38-.34.78-.67,1.17-1Z"/>
        <path class="cls-2" d="m28.04,157.03c.15.26.45.54.43.78-.33,3.57.82,5.98,3.99,7.56,8.65,4.32,17.35,8.54,26.04,12.8,10.42,5.11,20.86,10.16,31.24,15.33,4.41,2.2,8.64,2.14,13-.12,7.55-3.9,15.16-7.68,22.75-11.51.21-.1.42-.2.76-.35v13.88c-7.73,3.73-15.46,7.46-23.2,11.19-4.67,2.25-9.34,2.3-14.01-.02-13.15-6.52-26.3-13.03-39.45-19.54-7.95-3.94-15.92-7.83-23.84-11.83-7.05-3.56-7.53-11.77-.99-16.22,1.05-.72,2.18-1.31,3.27-1.97Z"/>
        <path class="cls-2" d="m28.13,68.48c.06,1.83.24,3.66.15,5.48-.19,3.82,1.56,6.42,4.87,8.04,3.51,1.72,7.08,3.34,10.61,5.02,13.16,6.24,26.31,12.49,39.47,18.73,2.3,1.09,4.63,2.12,6.91,3.25,4.51,2.22,8.76,1.68,12.83-1.11.31-.21.76-.22,1.14-.33,0,6.71,0,13.43,0,20.14-1.05,4.29-3.88,6.84-7.8,7.04-5.63.29-10-5.72-7.98-10.97.2-.53.44-1.04.73-1.7-5.18-2.51-10.36-5.01-15.54-7.51-11.09-5.37-22.19-10.73-33.27-16.11-4.07-1.98-8.17-3.93-12.16-6.06-3.28-1.76-5.82-4.33-7.29-7.84,0,0-.04,0-.04,0-.06-.27-.12-.53-.19-.8-.14-.88-.3-1.76-.4-2.64-.54-4.64,1.48-8.09,5.1-10.76.9-.67,1.88-1.23,2.83-1.84Z"/>
        <path class="cls-2" d="m25.48,101.03c1.38,1,3.02,1.61,3.06,3.88.04,2,1.53,3.48,3.24,4.37,3.55,1.86,7.18,3.55,10.8,5.27,14.99,7.13,29.98,14.26,44.98,21.36,2.76,1.3,5.43,2.96,8.69,2.56.37-.05.75-.05,1.12-.13,3.68-.72,6.04.88,6.79,4.6,1.07,5.28-3.71,9.97-9.27,9.23-3.46-.46-6.4-2.17-9.44-3.64-9.38-4.54-18.71-9.17-28.09-13.71-9.81-4.75-19.68-9.38-29.47-14.16-3.44-1.68-6.2-4.13-7.31-8.02-.99-4.39.43-7.89,3.92-10.64.36-.28.66-.65.98-.97Z"/>
        <path class="cls-2" d="m173.6,127.4c-1.71,4.53-5.34,6.95-9.49,8.95-8.02,3.87-15.97,7.89-23.95,11.84-.32.16-.66.3-1.17.53,0-1.56,0-2.96,0-4.36,0-9.31,0-18.62-.04-27.92,0-.94.28-1.41,1.12-1.83,6.86-3.47,13.71-6.97,20.53-10.52,3.55-1.85,5.92-4.53,5.56-8.95.43,0,.77,0,1.12,0,3.54,2.01,6.15,4.75,6.28,9.04.05,1.58-.57,3.17-.88,4.76-1.72,2.72-4.21,4.53-7.02,5.96-4.48,2.29-8.98,4.57-13.44,6.89-.54.28-1.34.78-1.38,1.22-.15,1.98-.07,3.98-.07,6.16.75-.33,1.23-.51,1.68-.74,2.97-1.53,5.91-3.15,8.92-4.6,3.67-1.77,6.6-4.32,8.77-7.75,3.15,3.16,4.61,6.84,3.44,11.31Z"/>
        <path class="cls-2" d="m156.62,78.65c.08.03.14,0,.19-.07,1.44-.74,2.88-1.48,4.31-2.22,3.19-1.6,5.22-3.91,4.82-7.75-.02-.18.33-.4.5-.61,2.28.98,4.24,2.33,5.7,4.4,1.59,2.25,1.95,4.7,1.44,7.34-.5,1.01-.99,2.03-1.49,3.04-.12.18-.25.36-.37.54l.08.06s-.07-.07-.07-.07c-1.77,1.34-3.54,2.68-5.31,4.02-.19.09-.38.19-.57.28-6.64,3.27-13.29,6.55-19.93,9.82,0,0-.06.02-.06.02-7.19,3.55-14.38,7.1-21.77,10.75,0-3.01-.02-5.87,0-8.73.02-1.55.11-3.1.17-4.65,0,0-.03.02-.03.02.4-.2.8-.41,1.19-.61.08.03.13,0,.16-.07,2.76-1.4,5.51-2.8,8.27-4.2,0,0-.02.01-.02.01,3.23-1.61,6.47-3.23,9.7-4.84.08.02.15,0,.2-.07,3.15-1.58,6.3-3.16,9.46-4.75.08.03.14.01.19-.07.57-.28,1.13-.56,1.7-.84.19-.09.38-.19.57-.28.32-.17.63-.34.95-.51Z"/>
        <path class="cls-2" d="m166.45,175.85c-.15-.26-.42-.51-.44-.78-.1-1.54.38-3.41-.34-4.52-.73-1.13-2.61-1.53-4.01-2.2-5.31-2.54-10.64-5.05-15.96-7.58-.29-.14-.57-.29-1.14-.58,3.2-1.64,6.17-3.18,9.17-4.67.29-.14.72,0,1.09.02,3.63,1.77,7.26,3.54,10.88,5.32,1.56.77,3.14,1.52,4.67,2.35,3.21,1.75,4.11,5.29,2,8.28-.71,1.01-1.74,1.83-2.74,2.57-.97.71-2.11,1.2-3.18,1.78Z"/>
        <path class="cls-2" d="m54.79,77.62c4.52-2.32,8.83-4.56,13.18-6.73.37-.18,1-.06,1.41.12,6.31,2.88,12.64,5.72,18.88,8.74,3.24,1.57,6.5,2.37,10.1,1.94,2.94-.35,5.78,2.51,5.92,5.78.18,4.21-2.8,7.73-6.99,8.16-2.38.24-4.7-.07-6.9-1.11-11.35-5.36-22.71-10.7-34.06-16.06-.46-.22-.9-.5-1.54-.85Z"/>
        <path class="cls-2" d="m96.24,51.33c4.58.14,8.07,3.68,7.93,8.04-.14,4.58-3.84,8.03-8.43,7.85-4.51-.17-7.95-3.92-7.83-8.53.11-4.34,3.69-7.5,8.33-7.36Z"/>
      </g>
      <g>
        <path class="cls-8" d="m104.13,127.69c0-6.71,0-13.43,0-20.14.16.39.47.78.47,1.18.03,6.05.03,12.1,0,18.14,0,.28-.3.55-.46.82Z"/>
        <path class="cls-8" d="m133.88,89.99c-2.76,1.4-5.51,2.8-8.27,4.2.02-.09.02-.24.08-.26,2.73-1.32,5.46-2.63,8.19-3.93Z"/>
        <path class="cls-8" d="m161.12,76.36c-1.44.74-2.88,1.48-4.31,2.22,1.44-.74,2.88-1.48,4.31-2.22Z"/>
        <path class="cls-8" d="m170.16,116.09c-2.18,3.43-5.1,5.99-8.77,7.75-3.01,1.45-5.95,3.07-8.92,4.6-.45.23-.93.41-1.68.74,0-2.18-.09-4.18.07-6.16.03-.45.83-.94,1.38-1.22,4.47-2.32,8.96-4.6,13.44-6.89,2.81-1.44,5.31-3.24,7.02-5.96-.11.88-.04,1.82-.35,2.61-.61,1.56-1.44,3.03-2.18,4.53Z"/>
        <path class="cls-8" d="m173.58,79.75c-.02,1.19.03,2.39-.07,3.58-.22,2.81-.26,5.7-2.14,8.04-.78.97-1.81,1.74-2.74,2.59-.44.41-.9.79-1.35,1.19-.35,0-.69,0-1.12,0,.36,4.42-2.01,7.1-5.56,8.95-6.82,3.55-13.67,7.05-20.53,10.52-.84.42-1.13.89-1.12,1.83.04,9.31.03,18.62.04,27.92,0,1.4,0,2.79,0,4.36.51-.23.84-.37,1.17-.53,7.98-3.95,15.93-7.97,23.95-11.84,4.15-2,7.78-4.42,9.49-8.95-.02,1.01-.05,2.02-.07,3.02-.08,2.87-.04,5.74-.27,8.6-.4,4.89-3.13,8.25-7.36,10.48-3.37,1.78-6.78,3.47-10.16,5.23-.35.18-.62.53-.92.8-.37-.01-.8-.16-1.09-.02-3,1.49-5.98,3.03-9.17,4.67.57.29.85.44,1.14.58,5.32,2.52,10.64,5.04,15.96,7.58,1.4.67,3.28,1.08,4.01,2.2.72,1.11.24,2.99.34,4.52.02.27.29.52.44.78-4.56,2.25-9.12,4.48-13.68,6.74-5.27,2.62-10.53,5.27-15.8,7.89-3.16,1.57-6.34,3.1-9.52,4.63-.37.18-.8.21-1.21.31v-13.88c-.34.16-.55.25-.76.35-7.59,3.83-15.2,7.61-22.75,11.51-4.36,2.26-8.59,2.31-13,.12-10.38-5.17-20.83-10.23-31.24-15.33-8.68-4.26-17.38-8.49-26.04-12.8-3.17-1.58-4.32-3.99-3.99-7.56.02-.25-.28-.52-.43-.78-1.21-.93-2.53-1.75-3.62-2.8-2.46-2.39-3.82-5.31-3.79-8.81,0-.93-.18-1.87-.19-2.81,0-.63.13-1.26.21-1.9,1.4,3.49,3.9,5.97,7.2,7.66,2.89,1.48,5.84,2.88,8.75,4.31,14.61,7.18,29.21,14.36,43.82,21.55,2.91,1.43,5.8,2.89,8.69,4.33-1.98,4.71-1.39,8.2,1.76,10.84,2.69,2.25,6.68,2.55,9.61.42,1.28-.93,2.47-2.28,3.13-3.71,1.16-2.5.75-5.12-.64-7.55,7.6-3.8,15.07-7.52,22.53-11.27.36-.18.84-.6.85-.91.06-4.38.04-8.76.04-13.32-.55.25-.97.43-1.37.63-7.35,3.77-14.72,7.51-22.03,11.34-4.5,2.36-8.87,2.52-13.52.22-14.92-7.39-29.91-14.63-44.88-21.92-4.16-2.02-8.37-3.93-12.48-6.03-2.83-1.44-4.19-3.84-3.84-7.1.14-1.29-1.35-2.76-2.79-2.86-.87-1.07-1.72-2.16-2.61-3.2-1.74-2.03-2.29-4.49-2.44-7.05-.09-1.48.09-2.98.15-4.47,1.1,3.88,3.87,6.34,7.31,8.02,9.79,4.78,19.66,9.42,29.47,14.16,9.38,4.54,18.71,9.17,28.09,13.71,3.04,1.47,5.98,3.18,9.44,3.64,5.56.74,10.34-3.96,9.27-9.23-.76-3.73-3.11-5.32-6.79-4.6-.37.07-.75.08-1.12.13-3.27.4-5.94-1.25-8.69-2.56-15-7.1-29.99-14.23-44.98-21.36-3.62-1.72-7.25-3.41-10.8-5.27-1.71-.89-3.2-2.37-3.24-4.37-.04-2.27-1.68-2.88-3.06-3.88-.65-.8-1.3-1.6-1.96-2.39-1.87-2.21-2.74-4.82-2.84-7.65-.08-2.15.09-4.31.16-6.47,1.46,3.51,4,6.08,7.29,7.84,3.99,2.14,8.09,4.08,12.16,6.06,11.08,5.39,22.18,10.75,33.27,16.11,5.17,2.5,10.35,5,15.54,7.51-.29.67-.53,1.18-.73,1.7-2.02,5.26,2.35,11.26,7.98,10.97,3.93-.2,6.75-2.75,7.8-7.04.16-.27.46-.55.46-.82.03-6.05.03-12.1,0-18.14,0-.39-.31-.78-.47-1.18-.38.1-.83.12-1.14.33-4.08,2.79-8.32,3.33-12.83,1.11-2.28-1.12-4.61-2.15-6.91-3.25-13.16-6.24-26.31-12.49-39.47-18.73-3.54-1.68-7.1-3.3-10.61-5.02-3.31-1.62-5.06-4.22-4.87-8.04.09-1.82-.09-3.65-.15-5.48-3.42-1.88-6.08-4.48-7.12-8.34-.43-1.61-.55-3.33-.6-5-.06-2.01.1-4.02.17-6.03.23.61.4,1.26.71,1.83,1.41,2.6,3.67,4.29,6.26,5.55,7.55,3.69,15.1,7.36,22.68,10.98.49.23,1.29.22,1.78-.01,2.44-1.14,4.82-2.38,7.22-3.6,1.79-.92,3.57-1.86,5.55-2.89-9.17-4.33-18.11-8.55-27.24-12.87.45-.24.65-.35.85-.45,16.69-8.25,33.42-16.41,50.03-24.8,4.75-2.4,9.06-2.79,13.97-.35,14.75,7.34,29.64,14.38,44.47,21.55,2.69,1.3,5.37,2.64,8.23,4.05-.71.39-1.19.67-1.69.92-8.99,4.49-17.96,9.02-27,13.4-1.79.87-2.43,1.87-2.32,3.84.18,3.42.05,6.86.05,10.46.57-.21.93-.3,1.25-.46,11.58-5.74,23.17-11.46,34.73-17.23,3.2-1.6,6.41-3.2,9.49-5.01,2.54-1.5,3.68-3.95,3.69-6.91.05.08.15.15.16.23.14,4.37.42,8.77-.64,13.05-.72,2.92-2.79,4.95-5.24,6.59-.41.28-.75.67-1.12,1.01-.18.2-.52.42-.5.61.41,3.85-1.63,6.15-4.82,7.75l-4.31,2.22c-.04.07-.11.1-.19.07-.32.17-.63.34-.95.51-.19.09-.38.19-.57.28-.57.28-1.13.56-1.7.84-.04.08-.1.1-.19.07-.37.06-.77.05-1.09.2-2.59,1.26-5.17,2.55-7.73,3.86-.26.13-.43.45-.64.68-.05.07-.12.1-.2.07-.41.06-.86.01-1.21.18-2.6,1.26-5.18,2.54-7.75,3.85-.3.15-.49.53-.73.8,0,0,.02-.01.02-.01-2.73,1.31-5.47,2.62-8.19,3.93-.06.03-.05.17-.08.26-.03.08-.08.1-.16.07-.4.2-.8.41-1.19.61,0,0,.03-.02.03-.02-.22.45-.62.9-.63,1.36-.05,3.49-.05,6.99-.01,10.48,0,.75.25,1.5.37,2.2,2.35-.92,4.53-1.62,6.58-2.6,2.34-1.12,4.55-2.53,6.84-3.75,1.89-1.01,3.86-1.86,5.71-2.91.99-.56,1.82-1.42,2.72-2.14l.06-.02c.88-.18,1.83-.2,2.62-.57,1.48-.68,2.83-1.61,4.29-2.33,3.31-1.61,6.65-3.16,9.98-4.72.21-.1.5-.04.67-.17.81-.66,1.59-1.35,2.38-2.03.19-.09.38-.19.57-.28.51,0,1.14.17,1.51-.07,1.02-.64,2-1.4,2.87-2.23.45-.43.62-1.14.92-1.72,0,0,.07.07.07.07,0,0-.08-.06-.08-.06.12-.18.24-.36.37-.54l1.49-3.04Zm-118.79-2.13c.64.35,1.07.63,1.54.85,11.35,5.35,22.71,10.7,34.06,16.06,2.2,1.04,4.52,1.35,6.9,1.11,4.19-.43,7.17-3.95,6.99-8.16-.14-3.27-2.98-6.13-5.92-5.78-3.6.43-6.86-.37-10.1-1.94-6.24-3.02-12.57-5.86-18.88-8.74-.41-.19-1.05-.31-1.41-.12-4.35,2.17-8.66,4.41-13.18,6.73Zm41.44-26.28c-4.64-.15-8.22,3.02-8.33,7.36-.12,4.61,3.32,8.35,7.83,8.53,4.59.18,8.29-3.27,8.43-7.85.13-4.36-3.36-7.89-7.93-8.04Z"/>
        <path class="cls-8" d="m124.29,94.85c-.06,1.55-.16,3.1-.17,4.65-.03,2.86,0,5.72,0,8.73,7.39-3.65,14.58-7.2,21.77-10.75-.9.72-1.73,1.58-2.72,2.14-1.86,1.06-3.83,1.91-5.71,2.91-2.3,1.22-4.5,2.63-6.84,3.75-2.05.98-4.23,1.69-6.58,2.6-.12-.69-.36-1.44-.37-2.2-.04-3.49-.04-6.99.01-10.48,0-.46.41-.91.63-1.36Z"/>
        <path class="cls-8" d="m145.93,97.45c6.64-3.27,13.29-6.55,19.93-9.82-.79.68-1.57,1.38-2.38,2.03-.16.13-.46.08-.67.17-3.33,1.56-6.67,3.11-9.98,4.72-1.46.71-2.81,1.65-4.29,2.33-.79.36-1.74.39-2.62.57Z"/>
        <path class="cls-8" d="m143.56,85.17c-3.23,1.61-6.47,3.23-9.7,4.84.24-.27.43-.65.73-.8,2.57-1.31,5.16-2.6,7.75-3.85.35-.17.81-.13,1.21-.18Z"/>
        <path class="cls-8" d="m153.22,80.35c-3.15,1.58-6.3,3.16-9.46,4.75.21-.23.37-.55.64-.68,2.57-1.31,5.14-2.6,7.73-3.86.32-.16.72-.14,1.09-.2Z"/>
        <path class="cls-8" d="m166.43,87.35c1.77-1.34,3.54-2.68,5.31-4.02-.3.58-.48,1.29-.92,1.72-.87.84-1.85,1.59-2.87,2.23-.37.23-1,.06-1.51.07Z"/>
        <path class="cls-8" d="m155.1,79.44c-.57.28-1.13.56-1.7.84.57-.28,1.13-.56,1.7-.84Z"/>
        <path class="cls-8" d="m125.45,94.26c-.4.2-.8.41-1.19.61.4-.2.8-.41,1.19-.61Z"/>
        <path class="cls-8" d="m156.62,78.65c-.32.17-.63.34-.95.51.32-.17.63-.34.95-.51Z"/>
        <path class="cls-8" d="m171.73,83.34c.12-.18.25-.36.37-.54-.12.18-.25.36-.37.54Z"/>
      </g>
    </g>
    <g>
      <rect class="cls-8" x="165.86" y="191.12" width="4.06" height="10.53"/>
      <polygon class="cls-8" points="188.17 189.9 188.17 201.65 184.07 201.65 184.07 189.9 180.88 189.9 180.88 185.92 191.36 185.92 191.36 189.9 188.17 189.9"/>
      <rect class="cls-8" x="192.76" y="191.12" width="4.06" height="10.53"/>
      <path class="cls-8" d="m170.45,187.87c0,1.42-1.15,2.57-2.57,2.57s-2.58-1.15-2.58-2.57,1.15-2.57,2.58-2.57,2.57,1.15,2.57,2.57"/>
      <path class="cls-11" d="m166.04,204.51c8.11-3.24,15.75-7.56,15.75-10.79,0-1.63-1.06-2.59-3.79-2.92-1.76-.22-3.78-.04-3.42-1.63.35-1.55,4.3-2.99,6.3-3.25v-3.2c-5.33,1.83-10.11,4.19-10.11,7.64,0,1.66.99,3.38,3.79,3.63,2.69.24,3.26.98,3.26,2.01,0,2.02-5.04,5.26-11.78,8.5"/>
      <path class="cls-8" d="m197.33,187.87c0,1.42-1.15,2.57-2.57,2.57s-2.57-1.15-2.57-2.57,1.15-2.57,2.57-2.57,2.57,1.15,2.57,2.57"/>
      <path class="cls-8" d="m145.35,207.18c-1.64-2.99,5.85-9.66,5.85-9.66-7.09,5.18-9.8,9.23-8.65,11.18,1.34,2.27,9.35,1.94,21.46-3.36-9.73,3.78-17.45,4.04-18.65,1.84"/>
      <path class="cls-8" d="m200.77,178.67c-2.15-3.53-13.93-1.26-29.85,6.98,13.46-6.12,25.41-8.66,27.7-5.48.75,1.05.47,3.1-1.29,5.67,1.52-1.48,4.53-5.39,3.44-7.17"/>
      <polygon class="cls-8" points="152.33 201.65 152.33 185.92 156.39 185.92 156.39 192.92 159.81 185.92 164.51 185.92 160.69 193.09 164.6 201.65 160.07 201.65 156.39 193.27 156.39 201.65 152.33 201.65"/>
      <polygon class="cls-1" points="168.14 204.97 168.79 204.97 169.1 206.79 169.1 206.79 169.42 204.97 170.14 204.97 170.48 206.79 170.49 206.79 170.8 204.97 171.43 204.97 170.87 207.53 170.13 207.53 169.79 205.71 169.78 205.71 169.46 207.53 168.69 207.53 168.14 204.97"/>
      <polygon class="cls-1" points="171.5 204.97 172.15 204.97 172.45 206.79 172.46 206.79 172.78 204.97 173.5 204.97 173.84 206.79 173.85 206.79 174.16 204.97 174.79 204.97 174.24 207.53 173.48 207.53 173.15 205.71 173.14 205.71 172.82 207.53 172.06 207.53 171.5 204.97"/>
      <polygon class="cls-1" points="174.86 204.97 175.51 204.97 175.82 206.79 175.82 206.79 176.14 204.97 176.86 204.97 177.2 206.79 177.21 206.79 177.52 204.97 178.15 204.97 177.59 207.53 176.84 207.53 176.51 205.71 176.5 205.71 176.18 207.53 175.41 207.53 174.86 204.97"/>
      <rect class="cls-1" x="178.26" y="206.79" width=".63" height=".75"/>
      <polygon class="cls-1" points="180.05 204.13 180.05 205.92 180.06 205.92 180.72 204.97 181.45 204.97 180.71 205.98 181.56 207.53 180.83 207.53 180.28 206.48 180.05 206.78 180.05 207.53 179.39 207.53 179.39 204.13 180.05 204.13"/>
      <path class="cls-1" d="m181.78,204.97h.66v2.57h-.66v-2.57Zm0-.87h.66v.56h-.66v-.56Z"/>
      <path class="cls-7" d="m183.38,206.7v.08c0,.22.12.37.35.37.2,0,.33-.1.33-.3,0-.17-.11-.25-.24-.29l-.46-.17c-.36-.13-.55-.35-.55-.72,0-.42.27-.77.95-.77.6,0,.88.27.88.73v.11h-.59c0-.26-.08-.39-.29-.39-.17,0-.31.1-.31.28,0,.13.07.23.29.3l.4.14c.41.14.57.34.57.73,0,.54-.4.81-.96.81-.74,0-.94-.32-.94-.82v-.09h.59Z"/>
      <path class="cls-1" d="m185.16,204.23h.66v.73h.38v.45h-.38v1.39c0,.2.04.28.24.28.05,0,.1,0,.14,0v.46c-.14.01-.28.03-.43.03-.52,0-.61-.16-.61-.68v-1.47h-.33v-.45h.33v-.73Z"/>
      <path class="cls-1" d="m186.46,204.97h.66v2.57h-.66v-2.57Zm0-.87h.66v.56h-.66v-.56Z"/>
      <rect class="cls-1" x="187.61" y="206.79" width=".63" height=".75"/>
      <path class="cls-1" d="m188.72,204.97h.63v.35h.01c.13-.25.32-.41.59-.41.04,0,.08,0,.12,0v.63c-.07,0-.14,0-.21,0-.23,0-.49.12-.49.46v1.54h-.66v-2.57Z"/>
      <path class="cls-1" d="m190.87,205.96v-.1c0-.24.08-.51.34-.51.28,0,.32.22.34.61h-.67Zm1.3.39v-.15c0-.79-.17-1.3-.94-1.3-.89,0-1.02.64-1.02,1.33,0,.64.04,1.37.99,1.37.62,0,.91-.33.93-.93h-.59c-.04.32-.13.48-.35.48-.24,0-.32-.3-.32-.6v-.2h1.3Z"/>
      <rect class="cls-1" x="192.56" y="206.79" width=".63" height=".75"/>
      <polygon class="cls-1" points="194.35 204.13 194.35 205.92 194.36 205.92 195.02 204.97 195.74 204.97 195.01 205.98 195.85 207.53 195.13 207.53 194.58 206.48 194.35 206.78 194.35 207.53 193.69 207.53 193.69 204.13 194.35 204.13"/>
      <path class="cls-1" d="m196.05,204.97h.63v.35h.01c.13-.25.32-.41.59-.41.04,0,.08,0,.12,0v.63c-.06,0-.14,0-.2,0-.23,0-.49.12-.49.46v1.54h-.66v-2.57Z"/>
    </g>
    <g>
      <g>
        <path class="cls-2" d="m150.25,88.38s1.3,9.45.18,22.56c-.37,4.32-1.66,5.95-4.71,6.17-6.26.45-7.32,3.12-7.07,6.16.19,2.26,3.76,5.67,8.62,4.79,2.76-.5,4.47-.57,6.5-2.25,5-4.15,4.11-12.38,4.11-16.44,0-10.08,0-19.31,0-19.31"/>
        <path class="cls-3" d="m145.74,129.77c.6,0,1.21-.05,1.82-.16l1.1-.19c2.18-.37,4.06-.68,6.12-2.39,4.98-4.13,4.81-11.6,4.7-16.06-.01-.58-.03-1.12-.03-1.59v-19.31c0-.87-.7-1.57-1.57-1.57s-1.57.7-1.57,1.57v19.31c0,.5.01,1.06.03,1.67.1,4.14.24,10.4-3.57,13.56-1.41,1.17-2.63,1.38-4.64,1.71l-1.14.2c-2.58.47-4.38-.55-5.22-1.2-1.01-.78-1.52-1.67-1.56-2.17-.11-1.29.09-2.18.62-2.8.8-.93,2.48-1.49,4.99-1.67,4.89-.35,5.86-4.04,6.16-7.61,1.12-13.12-.14-22.51-.19-22.9-.12-.86-.88-1.47-1.77-1.34-.86.12-1.46.91-1.34,1.77.01.09,1.26,9.46.17,22.21-.36,4.22-1.52,4.61-3.26,4.74-3.43.25-5.77,1.15-7.15,2.76-1.1,1.28-1.55,2.95-1.37,5.1.12,1.52,1.16,3.17,2.77,4.41,1.67,1.28,3.74,1.96,5.88,1.96h0Z"/>
      </g>
      <g>
        <path class="cls-2" d="m157.95,99.43s8.7,25.92,21.19,27.94c6.88,1.11,10.82-1,10.23-4.64-.6-3.64-2.75-5.98-9.63-7.13-6.88-1.15-14.23-14.27-14.23-14.27"/>
        <path class="cls-3" d="m182.57,129.23c3.07,0,5.48-.76,6.94-2.22,1.18-1.19,1.68-2.8,1.39-4.53-.79-4.82-3.96-7.26-10.92-8.42-5.02-.84-11.17-10.02-13.12-13.48-.42-.75-1.38-1.03-2.14-.6-.76.42-1.03,1.38-.6,2.14.79,1.41,7.93,13.81,15.34,15.05,7,1.17,7.96,3.52,8.34,5.83.12.75-.04,1.33-.52,1.81-1.24,1.24-4.2,1.63-7.91,1.03-9.47-1.53-17.61-19.93-19.95-26.89-.28-.82-1.16-1.26-1.99-.99-.82.28-1.26,1.17-.99,1.99.37,1.09,9.16,26.84,22.43,28.99,1.31.21,2.55.32,3.69.32h0Z"/>
      </g>
      <g>
        <path class="cls-6" d="m186.34,63.44s10.05.17,14.63,9.78c4.73,9.97-.36,25.31-15.65,26.54-20.88,1.68-43.51-3.03-58.81-13.84-15.78-11.15-7.93-28.99,1.91-32.17,8.83-2.85,13.48.81,13.48.81,0,0,5.11-20.74,27.05-16.08,21.94,4.66,17.39,24.96,17.39,24.96Z"/>
        <path class="cls-3" d="m177,101.66c-19.66,0-38.39-5.27-51.39-14.46-9.78-6.91-10.11-15.41-9.43-19.86,1.07-6.99,5.9-13.2,11.76-15.09,2.39-.77,4.71-1.16,6.91-1.16,2.74,0,4.8.61,6.15,1.19,1.75-4.62,7.53-16.05,21.81-16.05,2.06,0,4.23.24,6.47.72,7.18,1.53,12.44,4.82,15.64,9.8,3.72,5.81,3.57,12.27,3.23,15.3,3.33.52,10.45,2.55,14.24,10.5,2.76,5.81,2.39,13.29-.93,19.05-3.3,5.7-8.98,9.16-16.01,9.72-2.78.22-5.62.34-8.45.34h0Zm-14.19-62.29c-15.31,0-19.23,14.93-19.38,15.57-.13.51-.51.92-1.01,1.1-.5.18-1.06.09-1.48-.23-.09-.06-2.12-1.57-6.09-1.57-1.87,0-3.87.34-5.95,1.01-4.69,1.51-8.74,6.8-9.62,12.57-.57,3.73-.27,10.88,8.13,16.82,12.49,8.82,30.56,13.89,49.58,13.89,2.75,0,5.5-.11,8.2-.33,5.97-.48,10.77-3.38,13.54-8.16,2.83-4.89,3.15-11.23.82-16.13-4.08-8.58-12.87-8.88-13.23-8.89-.47,0-.92-.23-1.21-.6-.29-.37-.4-.85-.3-1.31.02-.08,1.73-8.01-2.54-14.66-2.72-4.24-7.31-7.08-13.65-8.42-2.02-.43-3.98-.65-5.82-.65h0Z"/>
      </g>
      <path class="cls-10" d="m136.29,63.65c3.77.9,4.66,4.1,3.9,6.66-.97,3.25-4.11,4.49-7.34,3.71-3.23-.77-5.25-3.51-4.09-7.46,1.01-3.41,4.66-3.61,7.53-2.92Z"/>
      <path class="cls-10" d="m176.95,75.26c3.76.9,4.66,4.11,3.9,6.67-.97,3.25-4.11,4.49-7.34,3.71-3.23-.78-5.25-3.51-4.09-7.45,1.01-3.41,4.66-3.61,7.53-2.93Z"/>
      <path class="cls-3" d="m160.25,72.64c.4,0,.8-.15,1.11-.46.77-.77,2.08-1.01,3.89-.72.85.14,1.66-.45,1.8-1.31.14-.86-.45-1.66-1.31-1.8-2.87-.45-5.08.09-6.6,1.6-.62.61-.62,1.61,0,2.22.31.31.71.46,1.11.46h0Z"/>
      <path class="cls-3" d="m149.88,70.52c.17,0,.34-.03.51-.09.82-.28,1.26-1.17.98-1.99-.66-1.94-2.77-4.01-4.79-4.7-.82-.28-1.71.16-2,.98-.28.82.16,1.71.98,2,1.11.38,2.48,1.71,2.84,2.75.22.65.83,1.06,1.49,1.06h0Z"/>
      <g>
        <path class="cls-2" d="m150.57,96.71s-19.68-1.61-40.02-28.52c0,0-6.33-8.68-11.65-5.44-6.34,3.87,9.5,32.04,51.98,35.6"/>
        <path class="cls-3" d="m150.88,99.93s-.09,0-.13,0c-32.66-2.73-51.82-20.66-54.48-31.92-.72-3.05-.06-5.45,1.81-6.59,6.47-3.95,13.44,5.45,13.72,5.83,19.58,25.9,38.66,27.88,38.9,27.9.86.07,1.5.83,1.43,1.69-.01.16-.05.31-.11.45.29.31.45.74.42,1.2-.07.82-.75,1.44-1.56,1.44h0Zm-49.42-36.32c-.6,0-1.19.15-1.74.49-.62.38-.77,1.59-.39,3.18,1.69,7.15,14.23,22.62,40.92,28-7.85-3.42-19.28-10.71-30.96-26.16-.05-.07-4.16-5.51-7.82-5.51h0Z"/>
      </g>
    </g>
    <g>
      <g>
        <g>
          <path class="cls-6" d="m61.79,169.63s17.97-11.22,16.02-17.7c-1.07-3.55-17.33,5.48-17.33,5.48"/>
          <path class="cls-3" d="m61.79,171.2c-.52,0-1.04-.26-1.33-.74-.46-.74-.24-1.7.5-2.16,6.86-4.29,15.99-11.86,15.41-15.64-1.76-.23-8.63,2.51-15.13,6.12-.76.42-1.71.15-2.13-.61-.42-.76-.15-1.71.61-2.13,4.24-2.35,14.48-7.68,18.04-6.24.77.31,1.32.91,1.56,1.67,2.18,7.26-13.52,17.51-16.69,19.49-.26.16-.55.24-.83.24h0Z"/>
        </g>
        <g>
          <path class="cls-6" d="m20.68,127.72c-.7-9.04-11.25-10.84-16.34-5.74-5.4,5.43-2.34,14.74,4.43,15.35"/>
          <path class="cls-3" d="m8.77,138.9s-.09,0-.14,0c-3.58-.32-6.63-2.78-7.95-6.4-1.49-4.09-.51-8.54,2.55-11.62,3.08-3.09,7.99-4.12,12.22-2.56,3.98,1.47,6.46,4.85,6.8,9.28.07.86-.58,1.62-1.45,1.69-.87.07-1.62-.58-1.69-1.45-.33-4.32-3.12-5.98-4.76-6.58-3.04-1.13-6.71-.37-8.9,1.83-2.62,2.63-2.66,6.03-1.82,8.33.91,2.51,2.89,4.13,5.28,4.35.86.08,1.5.84,1.42,1.7-.07.82-.76,1.43-1.56,1.43h0Z"/>
        </g>
        <g>
          <path class="cls-6" d="m27.91,167.6s4.66-4.44,12.58.09c6.25,3.58,8.67-4.27,4.24-8.2-4.44-3.93-11.83-4.94-16.76-1.26"/>
          <path class="cls-3" d="m43.45,170.17c-1.09,0-2.35-.33-3.73-1.12-6.73-3.85-10.57-.46-10.73-.31-.63.58-1.63.55-2.21-.08-.59-.63-.57-1.61.06-2.2.23-.22,5.61-5.2,14.45-.14.95.55,2.69,1.26,3.62-.02.95-1.32.69-3.96-1.2-5.64-3.67-3.25-10.21-4.58-14.78-1.18-.69.52-1.68.38-2.2-.32-.52-.7-.38-1.68.32-2.2,5.25-3.91,13.48-3.31,18.74,1.35,3.29,2.92,3.43,7.37,1.67,9.82-.82,1.14-2.19,2.04-4,2.04h0Z"/>
        </g>
        <g>
          <path class="cls-6" d="m38.3,123.3c-2.87-8.59,5.73-13.86,12.41-11.13,7.08,2.89,8.1,11.51,1.89,15.86"/>
          <path class="cls-3" d="m52.61,129.6c-.5,0-.98-.23-1.29-.67-.5-.71-.33-1.69.39-2.19,2.42-1.69,3.68-4.29,3.38-6.96-.31-2.71-2.16-5.02-4.97-6.16-2.96-1.21-6.46-.59-8.72,1.53-2.04,1.91-2.61,4.63-1.6,7.65.28.82-.17,1.71-.99,1.99-.82.28-1.71-.17-1.99-.99-1.4-4.19-.52-8.18,2.43-10.94,3.14-2.95,7.99-3.81,12.06-2.15,3.89,1.59,6.47,4.85,6.9,8.72.43,3.82-1.33,7.52-4.7,9.88-.27.19-.59.29-.9.29h0Z"/>
        </g>
        <path class="cls-5" d="m34.51,120.42c18.31-1.94,32.57,11.47,34.58,29.78,3.28,29.89-23.34,52.55-25.53,52.79-1.71.19-38.26-10.03-41.64-45.42-1.75-18.33,7.06-34.45,32.59-37.15Z"/>
        <path class="cls-9" d="m35.9,119.98c-21.76-.19-35.74,19.68-33.49,37.95,4.3,34.99,38.69,45.33,41.14,45.06,0,0,3.66-12.39,3.3-38.09-.47-33.4-10.95-44.93-10.95-44.93Z"/>
        <path class="cls-3" d="m43.75,204.4s-.07,0-.1,0c-5.21-.31-39.4-15.23-42.59-45.36-1.17-11.01,1.74-21.14,8.2-28.54,6.31-7.23,15.64-11.4,26.27-11.73,20.94-.65,34.25,16.62,35.03,33.31,1.07,22.94-15.43,42.09-20.51,47.41-4.68,4.91-5.85,4.91-6.29,4.91h0Zm-7.09-82.51c-.35,0-.69,0-1.04.02-9.75.3-18.27,4.08-24,10.65-5.87,6.73-8.51,16.02-7.44,26.15,2.94,27.72,33.57,41.7,39.34,42.52,3.67-2.21,25.04-24.42,23.9-49-.7-14.91-12.39-30.33-30.75-30.33h0Z"/>
        <path class="cls-6" d="m16.79,152.18c1.88,13.64,13.76,23.26,26.53,21.5,12.77-1.76,21.59-14.25,19.71-27.88-1.89-13.64-13.76-23.26-26.53-21.5-12.77,1.76-21.59,14.24-19.71,27.87Z"/>
        <g>
          <polygon class="cls-11" points="41.87 130.18 49.4 144.22 38.5 146.44 41.87 130.18"/>
          <polygon class="cls-8" points="49.18 144.35 46.32 161.91 38.86 146.15 49.18 144.35"/>
          <path class="cls-3" d="m46.1,163.4c-.52,0-1.01-.31-1.23-.79l-7.27-16.1c-.11-.25-.15-.53-.09-.8l2.96-15.6c.11-.56.55-.99,1.11-1.08.57-.1,1.12.19,1.39.68l7.59,13.89c.15.27.2.59.14.89l-3.28,17.81c-.11.58-.58,1.02-1.16,1.09-.05,0-.11,0-.16,0h0Zm-5.87-17.61l5.32,11.79,2.41-13.11-5.56-10.17-2.18,11.49h0Z"/>
        </g>
        <g>
          <path class="cls-3" d="m52.94,137.04c1.28-.25,2.12,1.24,2.44,2.84.31,1.6-.44,2.3-1.29,2.47-.85.16-1.63-1.01-1.95-2.61-.32-1.6-.17-2.51.8-2.7Z"/>
          <path class="cls-3" d="m53.93,143.71c-1.47,0-2.66-1.42-3.11-3.71-.2-1.02-.35-2.32.29-3.27.25-.37.72-.84,1.57-1.01,1.95-.38,3.49,1.21,4.02,3.9.46,2.38-.84,3.75-2.34,4.05-.09.02-.34.04-.42.04h0Zm-.59-5.26c0,.19.02.52.13,1.03.15.75.39,1.23.56,1.45.09-.1.14-.31.04-.8-.18-.92-.51-1.47-.72-1.68h0Z"/>
        </g>
        <g>
          <path class="cls-3" d="m30.39,139.01c1.29-.18,2.04,1.36,2.27,2.97.22,1.62-.56,2.26-1.42,2.39-.86.11-1.57-1.11-1.8-2.72-.22-1.61-.02-2.52.95-2.65Z"/>
          <path class="cls-3" d="m31.12,145.73c-1.53,0-2.69-1.49-3.02-3.88-.14-1.04-.22-2.34.48-3.26.27-.35.77-.8,1.63-.91.12-.02.25-.03.38-.03,1.74,0,3.04,1.59,3.4,4.15.35,2.56-1.16,3.7-2.57,3.91-.06,0-.24.02-.31.02h0Zm-.41-5.29c-.01.2,0,.52.06,1.03.1.75.32,1.25.47,1.48.09-.09.15-.3.08-.79-.13-.97-.43-1.51-.62-1.72h0Z"/>
        </g>
        <g>
          <path class="cls-6" d="m35.08,164.88c.65.37,11.69-.08,20.79-4.47,0,0,5.04-1.06,3.36,3.75-1.54,4.4-9.13,10.15-15.82,10.86"/>
          <path class="cls-3" d="m43.4,176.6c-.79,0-1.47-.6-1.56-1.4-.09-.86.53-1.64,1.39-1.73,6.09-.65,13.18-6.03,14.51-9.82.36-1.03.26-1.47.19-1.55-.18-.21-.99-.27-1.58-.18-8.89,4.22-20.58,5.15-22.04,4.33-.76-.43-1.02-1.38-.6-2.14.38-.66,1.16-.95,1.86-.72,1.37.17,11.3-.38,19.61-4.39.12-.05.24-.1.36-.12.33-.07,3.2-.61,4.75,1.16.97,1.11,1.11,2.67.41,4.66-1.85,5.28-10.34,11.18-17.14,11.9-.06,0-.11.01-.17.01h0Z"/>
        </g>
      </g>
      <path class="cls-4" d="m53.92,210.1c0,1.15-5.91,2.08-13.22,2.08s-13.22-.93-13.22-2.08,5.92-2.08,13.22-2.08,13.22.93,13.22,2.08Z"/>
    </g>
    <g>
      <path class="cls-3" d="m28.48,0h5.71c6.17,0,10.15,3.07,10.15,10.02s-3.98,10.19-9.89,10.19h-5.97V0Zm5.44,16.53c3.43,0,5.74-1.68,5.74-6.51s-2.32-6.34-5.74-6.34h-.87v12.85h.87Z"/>
      <path class="cls-3" d="m46.15,0h6.92c4.19,0,7.45,1.15,7.45,5.01,0,1.81-1.01,3.74-2.66,4.36v.12c2.06.54,3.66,2.06,3.66,4.76,0,4.11-3.48,5.95-7.87,5.95h-7.49V0Zm6.71,8.09c2.22,0,3.2-.94,3.2-2.41,0-1.56-1.04-2.16-3.17-2.16h-2.17v4.57h2.14Zm.42,8.59c2.49,0,3.78-.89,3.78-2.72s-1.26-2.49-3.78-2.49h-2.55v5.22h2.55Z"/>
      <path class="cls-3" d="m67.08,0h4.98l3.28,8.98c.41,1.19.76,2.49,1.16,3.73h.12c.41-1.24.75-2.54,1.15-3.73l3.18-8.98h4.98v20.21h-4.16v-7.42c0-1.97.37-4.91.58-6.87h-.12l-1.66,4.78-2.86,7.74h-2.54l-2.86-7.74-1.61-4.78h-.12c.21,1.96.58,4.9.58,6.87v7.42h-4.1V0Z"/>
      <path class="cls-3" d="m87.59,15.94c0-3.24,2.58-5,8.66-5.64-.09-1.35-.76-2.22-2.43-2.22-1.29,0-2.58.54-4.07,1.39l-1.62-2.99c1.95-1.19,4.15-2.02,6.57-2.02,3.93,0,6.11,2.25,6.11,6.96v8.79h-3.72l-.33-1.58h-.11c-1.29,1.14-2.75,1.95-4.48,1.95-2.8,0-4.58-2.05-4.58-4.64Zm8.66-.2v-2.69c-3.24.44-4.3,1.36-4.3,2.53,0,.99.68,1.48,1.76,1.48s1.72-.51,2.53-1.32Z"/>
      <path class="cls-3" d="m102.62,4.83h3.72l.33,1.95h.11c1.29-1.24,2.84-2.32,4.94-2.32,3.35,0,4.77,2.36,4.77,6.21v9.55h-4.56v-8.97c0-2.21-.59-2.91-1.91-2.91-1.14,0-1.84.53-2.85,1.49v10.38h-4.56V4.83Z"/>
      <path class="cls-3" d="m117.63,15.94c0-3.24,2.58-5,8.66-5.64-.09-1.35-.76-2.22-2.43-2.22-1.29,0-2.58.54-4.07,1.39l-1.62-2.99c1.95-1.19,4.15-2.02,6.57-2.02,3.93,0,6.11,2.25,6.11,6.96v8.79h-3.72l-.33-1.58h-.11c-1.29,1.14-2.75,1.95-4.47,1.95-2.81,0-4.59-2.05-4.59-4.64Zm8.66-.2v-2.69c-3.24.44-4.3,1.36-4.3,2.53,0,.99.68,1.48,1.76,1.48s1.72-.51,2.53-1.32Z"/>
      <path class="cls-3" d="m131.72,22.85c0-1.28.77-2.31,2.18-3.1v-.12c-.8-.54-1.41-1.34-1.41-2.61,0-1.11.74-2.19,1.71-2.88v-.12c-1.08-.75-2.06-2.19-2.06-3.99,0-3.69,3.05-5.57,6.36-5.57.86,0,1.69.13,2.38.37h5.62v3.32h-2.47c.29.46.52,1.22.52,2.03,0,3.54-2.69,5.17-6.06,5.17-.56,0-1.2-.09-1.88-.3-.38.33-.54.6-.54,1.14,0,.76.62,1.13,2.3,1.13h2.49c3.77,0,5.87,1.16,5.87,3.91,0,3.2-3.33,5.52-8.61,5.52-3.58,0-6.43-1.16-6.43-3.9Zm10.68-.85c0-.97-.83-1.19-2.35-1.19h-1.6c-1.05,0-1.66-.06-2.16-.2-.57.48-.83.96-.83,1.51,0,1.17,1.35,1.76,3.41,1.76s3.52-.82,3.52-1.88Zm-1.79-11.98c0-1.64-.89-2.5-2.1-2.5s-2.1.86-2.1,2.5.9,2.56,2.1,2.56,2.1-.88,2.1-2.56Z"/>
      <path class="cls-3" d="m145.75,12.52c0-4.99,3.56-8.07,7.26-8.07,4.38,0,6.55,3.19,6.55,7.38,0,.82-.1,1.64-.19,2.01h-9.2c.41,2.23,1.94,3.26,3.99,3.26,1.16,0,2.21-.35,3.33-1.01l1.51,2.75c-1.58,1.09-3.63,1.73-5.46,1.73-4.38,0-7.78-2.97-7.78-8.06Zm9.91-1.69c0-1.69-.74-2.91-2.56-2.91-1.44,0-2.68.97-2.99,2.91h5.55Z"/>
      <path class="cls-3" d="m160.69,4.83h3.72l.33,2.69h.11c1.12-2.05,2.8-3.06,4.37-3.06.88,0,1.39.11,1.83.31l-.76,3.93c-.55-.13-1-.25-1.66-.25-1.16,0-2.57.75-3.39,2.84v8.91h-4.56V4.83Z"/>
    </g>
  </g>
</svg>